<svg width="1550" height="209" viewBox="0 0 1550 209" fill="none" xmlns="http://www.w3.org/2000/svg">
<path fill-rule="evenodd" clip-rule="evenodd" d="M88.882 16.016C78.157 24.786 69.265 32.305 69.123 32.725C68.779 33.734 119.622 96.43 120.785 96.43C121.28 96.43 130.514 89.287 141.304 80.557C154.389 69.969 160.635 64.308 160.061 63.557C157.175 59.781 108.668 -0.0569593 108.539 4.06962e-05C108.453 0.0380407 99.607 7.24504 88.882 16.016ZM866.018 10.62L862.76 13.171L865.071 15.648C869.397 20.284 874.764 22.368 882.46 22.4C888.615 22.426 890.168 22.039 894.363 19.43C901.359 15.079 902.083 13.47 898.382 10.497C895.442 8.13604 895.342 8.12505 893.368 9.96105C887.332 15.577 878.29 15.983 872.499 10.898L869.277 8.07004L866.018 10.62ZM1168.93 10.544L1165.78 13.193L1168.08 15.659C1172.4 20.284 1177.77 22.368 1185.46 22.4C1191.61 22.426 1193.17 22.039 1197.36 19.43C1204.36 15.079 1205.08 13.47 1201.38 10.497C1198.44 8.13604 1198.34 8.12505 1196.37 9.96105C1190.29 15.619 1181.29 15.984 1175.4 10.811L1172.08 7.89504L1168.93 10.544ZM353.382 26.332C342.69 29.722 334.798 36.328 330.163 45.766C327.633 50.918 327.382 52.424 327.382 62.43C327.382 72.448 327.631 73.938 330.176 79.12C333.763 86.425 342.064 94.072 349.635 97.047C354.107 98.804 357.489 99.319 364.882 99.368C373.334 99.423 375.011 99.121 380.085 96.63C385.615 93.914 394.882 85.069 394.882 82.506C394.882 81.841 392.2 80.016 388.922 78.449L382.963 75.601L378.588 79.633C373.29 84.517 368.163 86.377 362.24 85.566C350.602 83.97 342.949 74.785 342.904 62.359C342.859 49.939 351.074 40.076 362.235 39.151C369.389 38.557 374.268 40.295 378.925 45.094L382.744 49.029L388.813 45.965C392.151 44.28 394.882 42.594 394.882 42.219C394.882 41.844 393.74 39.89 392.345 37.877C389.121 33.225 382.733 28.631 376.597 26.552C370.923 24.629 359.107 24.517 353.382 26.332ZM560.168 26.381C549.563 29.695 540.561 37.934 536.782 47.783C534.281 54.304 533.716 66.958 535.639 73.43C538.854 84.258 547.555 93.558 558.143 97.486C565.686 100.285 579.356 100.072 587.129 97.034C600.167 91.939 608.811 79.599 609.676 64.845C611.04 41.546 594.952 24.774 571.45 24.997C567.563 25.034 562.486 25.656 560.168 26.381ZM643.382 26.989C627.727 32.067 618.32 45.451 618.47 62.43C618.656 83.312 632.503 97.841 653.933 99.637C665.499 100.607 676.833 95.83 683.781 87.058C685.487 84.904 686.882 82.695 686.882 82.149C686.882 81.602 683.99 79.926 680.456 78.424L674.029 75.693L670.909 79.246C661.087 90.433 642.343 86.54 636.291 72.058C634.42 67.579 634.498 56.786 636.435 52.148C639.757 44.195 647.564 38.991 656.231 38.952C662.227 38.925 666.922 41.072 670.986 45.701L674.102 49.251L680.492 46.1C684.007 44.367 686.882 42.4781 686.882 41.903C686.882 41.327 684.295 38.229 681.132 35.018C676.93 30.751 673.824 28.607 669.594 27.054C662.168 24.328 651.664 24.302 643.382 26.989ZM717.387 27.058C701.635 32.474 692.631 45.345 692.642 62.43C692.65 73.862 695.418 80.641 703.294 88.518C713.633 98.856 727.701 102.306 741.915 97.988C748.151 96.094 750.032 94.94 755.038 89.934C758.252 86.72 760.882 83.473 760.882 82.718C760.882 81.492 751.127 75.93 748.977 75.93C748.504 75.93 746.366 77.682 744.225 79.822C737.224 86.823 727.559 87.648 718.659 82.003C710.415 76.775 706.743 64.803 710.023 53.852C712.553 45.408 721.283 38.93 730.133 38.93C736.391 38.93 739.633 40.315 744.502 45.068L748.621 49.09L754.752 45.996C758.123 44.294 760.882 42.386 760.882 41.756C760.882 41.126 758.295 38.044 755.132 34.908C745.259 25.117 731.41 22.237 717.387 27.058ZM950.382 26.989C924.385 35.422 916.497 69.31 935.994 88.807C941.023 93.836 945.659 96.376 953.562 98.435C964.437 101.267 975.146 99.596 983.661 93.738C987.58 91.042 993.882 83.738 993.882 81.892C993.882 81.487 990.99 79.926 987.456 78.424L981.029 75.693L977.909 79.246C969.401 88.936 953.357 87.389 945.443 76.117C942.877 72.462 942.358 70.681 942.043 64.45C941.604 55.755 942.931 51.083 947.229 46.187C951.238 41.622 957.081 38.98 963.231 38.952C969.227 38.925 973.922 41.072 977.986 45.701L981.102 49.251L987.492 46.1C991.007 44.367 993.882 42.4781 993.882 41.903C993.882 41.327 991.294 38.229 988.132 35.018C983.93 30.751 980.824 28.607 976.594 27.054C969.168 24.328 958.664 24.302 950.382 26.989ZM258.12 62.18L258.382 98.43H281.382C303.235 98.43 304.589 98.319 308.537 96.208C315.96 92.239 319.479 85.497 318.647 76.838C318.086 70.998 314.21 64.6861 310.056 62.847L307.114 61.545L311.487 57.487C316.983 52.3881 318.746 46.692 316.909 39.966C315.381 34.372 309.707 28.53 304.359 27.045C302.035 26.4 291.546 25.939 279.12 25.936L257.857 25.93L258.12 62.18ZM404.882 62.43V98.93H430.382H455.882V91.93V84.93H437.882H419.882V76.93V68.93H437.382H454.882V61.93V54.93H437.382H419.882V47.43V39.93H437.882H455.882V32.93V25.93H430.382H404.882V62.43ZM468.882 62.472V99.014L476.632 98.722L484.382 98.43L484.662 85.68L484.942 72.93H495.469C501.259 72.93 507.969 72.433 510.381 71.826C515.89 70.439 522.591 64.781 524.996 59.486C529.134 50.376 526.121 36.44 518.851 31.066C512.801 26.592 508.857 25.93 488.256 25.93H468.882V62.472ZM770.12 62.18L770.382 98.43L777.222 98.728C781.154 98.899 784.622 98.561 785.379 97.933C786.103 97.331 794.05 86.485 803.039 73.83L819.382 50.819L819.65 74.916L819.918 99.013L827.65 98.722L835.382 98.43L835.644 62.18L835.907 25.93H827.586H819.265L803.468 47.936C794.779 60.04 787.268 70.192 786.776 70.495C786.261 70.814 785.882 61.4921 785.882 48.489V25.93H777.87H769.857L770.12 62.18ZM849.882 62.43V98.93H857.222H864.563L881.704 74.861L898.845 50.792L899.114 74.611L899.382 98.43H906.882H914.382L914.644 62.18L914.907 25.93L906.644 25.964L898.382 25.997L882.382 48.472L866.382 70.947L866.113 48.439L865.844 25.93H857.863H849.882V62.43ZM1003.12 62.18L1003.38 98.43L1011.13 98.722L1018.88 99.014V87.684C1018.88 76.776 1018.98 76.231 1021.64 73.044L1024.41 69.734L1035.39 84.332L1046.38 98.93H1055.63C1060.72 98.93 1064.88 98.652 1064.88 98.313C1064.88 97.973 1058.1 89.207 1049.8 78.833L1034.73 59.969L1048.12 44.2C1055.48 35.526 1061.84 27.868 1062.26 27.18C1062.83 26.216 1060.85 25.93 1053.59 25.93H1044.18L1031.78 41.6L1019.38 57.269L1019.11 41.6L1018.83 25.93H1010.84H1002.86L1003.12 62.18ZM1073.12 62.18L1073.38 98.43H1080.88H1088.38L1105.38 74.627L1122.38 50.825L1122.65 74.919L1122.92 99.013L1130.65 98.722L1138.38 98.43L1138.64 62.18L1138.91 25.93H1130.53H1122.15L1105.77 48.82L1089.38 71.711L1089.11 48.82L1088.84 25.93H1080.85H1072.86L1073.12 62.18ZM1152.88 62.43V98.93H1160.23H1167.59L1184.72 74.787L1201.84 50.643L1202.11 74.537L1202.38 98.43H1209.88H1217.38L1217.64 62.18L1217.91 25.93L1209.64 25.95L1201.38 25.97L1185.38 48.481L1169.38 70.992L1169.11 48.461L1168.84 25.93H1160.86H1152.88V62.43ZM1264.88 62.519V99.108L1285.13 98.725C1308.2 98.288 1311.56 97.461 1317.24 90.82C1325.11 81.632 1324.75 67.977 1316.41 59.318C1311 53.701 1304.84 51.93 1290.7 51.93H1279.88V45.93V39.93H1298.88H1317.88V32.93V25.93H1291.38H1264.88V62.519ZM1352.88 26.289C1352.88 26.487 1346.81 42.342 1339.38 61.522C1331.96 80.703 1325.88 96.984 1325.88 97.702C1325.88 98.698 1327.93 98.939 1334.51 98.719L1343.14 98.43L1345.27 92.43L1347.39 86.43H1362.88H1378.37L1380.5 92.43L1382.62 98.43L1391.25 98.719C1397.84 98.939 1399.88 98.698 1399.88 97.701C1399.88 96.982 1395.36 84.702 1389.84 70.412C1384.32 56.122 1378.19 40.268 1376.24 35.18L1372.67 25.93H1362.78C1357.34 25.93 1352.88 26.092 1352.88 26.289ZM1409.12 62.18L1409.38 98.43L1417.13 98.722L1424.88 99.014V83.472V67.93H1441.88H1458.88V83.472V99.014L1466.63 98.722L1474.38 98.43L1474.64 62.18L1474.91 25.93H1466.89H1458.88V39.93V53.93H1441.88H1424.88V39.93V25.93H1416.87H1408.86L1409.12 62.18ZM1488.88 62.43V98.93H1496.38H1503.88L1503.92 87.68C1503.96 76.783 1504.05 76.326 1506.81 73.096L1509.67 69.763L1520.52 84.096L1531.38 98.43L1540.75 98.719C1548.84 98.969 1550.04 98.797 1549.54 97.475C1549.21 96.632 1542.56 87.99 1534.75 78.27C1521.21 61.406 1520.62 60.493 1521.97 58.298C1522.75 57.033 1529.14 49.233 1536.18 40.964L1548.98 25.93L1539.18 25.947L1529.38 25.965L1516.88 41.697L1504.38 57.43L1504.11 41.68L1503.83 25.93H1496.36H1488.88V62.43ZM580.65 40.478C589.39 44.129 593.34 50.973 593.365 62.508C593.38 69.779 593.078 71.079 590.341 75.508C581.417 89.951 559.705 88.756 552.747 73.439C550.231 67.901 550.286 56.84 552.857 51.176C555.052 46.34 558.991 42.284 563.382 40.338C567.468 38.527 576.15 38.597 580.65 40.478ZM299.109 41.68C302.795 45.878 301.893 51.693 297.225 53.82C295.884 54.43 290.084 54.93 284.335 54.93H273.882V47.43V39.93H285.727C295.756 39.93 297.808 40.198 299.109 41.68ZM507.959 42.853C511.72 46.614 511.92 51.611 508.47 55.624C506.154 58.32 505.642 58.443 495.47 58.771L484.882 59.112V49.521V39.93H494.959C504.763 39.93 505.115 40.009 507.959 42.853ZM1368.25 71.73C1365.3 71.895 1360.48 71.895 1357.54 71.73L1352.2 71.43L1356.55 59.43C1363.58 40.053 1362.31 40.321 1368.35 56.93L1373.61 71.43L1368.25 71.73ZM37.691 64.598L0 79.155L1.812 83.793C2.808 86.343 6.91301 97.092 10.933 107.68C15.127 118.725 18.784 126.93 19.512 126.93C21.038 126.93 94.05 98.995 95.155 97.988C95.58 97.601 92.726 88.992 88.812 78.857C84.898 68.722 80.805 58.067 79.717 55.18C78.629 52.293 77.208 49.955 76.56 49.985C75.912 50.015 58.421 56.591 37.691 64.598ZM172.07 53.701C162.14 67.831 128.941 120.378 129.57 120.971C130.016 121.392 139.803 127.836 151.318 135.29C170.029 147.403 172.378 148.662 173.416 147.137C179.308 138.477 216.882 80.033 216.882 79.527C216.882 78.983 192.123 62.42 177.692 53.31L173.988 50.972L172.07 53.701ZM1301.9 67.44C1305.3 69.198 1306.88 71.735 1306.88 75.43C1306.88 82.363 1302.03 84.93 1288.91 84.93H1279.88V75.43V65.93H1289.43C1295.99 65.93 1299.9 66.403 1301.9 67.44ZM300.809 71.565C303.398 74.855 303.462 78.991 300.973 82.069C299.179 84.287 298.299 84.45 286.473 84.762L273.882 85.093V77.012V68.93H286.309C298.544 68.93 298.769 68.971 300.809 71.565ZM54.382 123.177C45.032 123.694 37.315 124.187 37.233 124.273C36.733 124.801 41.512 205.899 42.076 206.46C42.905 207.285 92.125 204.959 92.962 204.056C93.387 203.596 89.49 123.726 88.967 122.18C88.814 121.728 71.686 122.222 54.382 123.177ZM415.651 134.063C409.446 134.919 401.137 138.47 396.426 142.28L393.469 144.671L397.371 149.787C401.263 154.891 401.28 154.899 403.828 153.222C409.529 149.469 412.73 148.455 419.989 148.102C430.933 147.569 437.019 151.265 435.455 157.494C434.491 161.335 431.228 162.372 418.382 162.919L406.382 163.43L406.089 170.041L405.797 176.652L417.593 177.138C430.638 177.675 435.424 179.258 436.458 183.376C438.157 190.148 432.882 193.921 421.705 193.926C414.872 193.93 413.288 193.545 407.313 190.43C403.619 188.505 400.475 186.93 400.325 186.93C400.175 186.93 398.358 189.238 396.287 192.059L392.522 197.188L395.952 200.043C406.709 208.996 427.122 210.961 440.643 204.346C455.945 196.859 456.637 178.083 441.855 171.418L437.938 169.651L441.926 167.678C446.771 165.281 449.533 161.939 450.917 156.799C454.817 142.318 437.37 131.07 415.651 134.063ZM1157.66 133.96C1145.42 136.023 1133.91 145 1129.83 155.668C1118.42 185.528 1142.04 213.928 1172.93 207.487C1185.44 204.879 1193.81 198.347 1199.27 186.93C1202.08 181.066 1202.38 179.5 1202.38 170.93C1202.38 162.366 1202.07 160.781 1199.26 154.841C1193.95 143.638 1185.52 137.02 1173.25 134.419C1165.72 132.824 1164.6 132.792 1157.66 133.96ZM1319.75 133.914C1305.25 136.469 1293.94 146.68 1290.41 160.39C1283.79 186.139 1300.61 208.182 1326.88 208.182C1340.76 208.182 1351.14 203.053 1358.22 192.686C1371.88 172.705 1363.44 144.234 1341.43 136.044C1335.23 133.739 1325.93 132.824 1319.75 133.914ZM257.882 170.876V206.93H265.882H273.882V194.563V182.195L286.632 181.713C297.24 181.311 300.199 180.841 304.243 178.917C319.821 171.508 321.104 147.531 306.409 138.439L301.546 135.43L279.714 135.126L257.882 134.822V170.876ZM328.179 169.19C320.917 188.022 314.682 204.218 314.322 205.18C313.73 206.765 314.513 206.93 322.641 206.93H331.614L333.802 200.93L335.989 194.93H351.314H366.638L368.882 200.93L371.126 206.93H380.087C385.016 206.93 388.899 206.542 388.715 206.067C388.532 205.593 382.307 189.395 374.882 170.073L361.382 134.942L351.382 134.946L341.382 134.95L328.179 169.19ZM463.882 170.93V206.93L486.632 206.908C506.539 206.889 509.887 206.657 513.423 205.05C526.819 198.965 528.503 179.719 516.315 171.99L512.105 169.32L514.981 168.046C523.339 164.347 525.675 149.591 519.134 141.817C513.896 135.593 510.932 134.976 486.132 134.952L463.882 134.93V170.93ZM535.882 170.93V206.93H543.721H551.56L568.471 183.18L585.382 159.43L585.65 183.18L585.918 206.93H593.4H600.882V170.89V134.849L592.687 135.14L584.492 135.43L568.437 157.832L552.382 180.234L552.113 157.582L551.844 134.93H543.863H535.882V170.93ZM610.882 141.93V148.93H621.382H631.882V177.93V206.93H639.882H647.882V177.965V149L658.132 148.715L668.382 148.43L668.678 141.68L668.973 134.93H639.928H610.882V141.93ZM677.882 170.972V207.014L685.613 206.722L693.343 206.43L709.863 183.13L726.382 159.831L726.65 183.38L726.918 206.93H734.9H742.882V170.93V134.93H734.56H726.238L710.31 157.18L694.382 179.43L694.113 157.18L693.844 134.93H685.863H677.882V170.972ZM765.762 137.724C761.867 139.759 759.593 141.845 757.397 145.396C754.731 149.709 754.382 151.159 754.382 157.93C754.382 164.694 754.732 166.153 757.384 170.442C759.395 173.696 761.772 175.98 764.587 177.364C766.898 178.5 768.81 179.737 768.835 180.111C768.861 180.486 765.507 186.494 761.382 193.463C757.257 200.431 753.882 206.312 753.882 206.531C753.882 206.751 757.89 206.93 762.789 206.93H771.695L778.539 194.438L785.382 181.945L791.132 181.938L796.882 181.93V194.43V206.93H804.882H812.882V170.93V134.93H791.996H771.11L765.762 137.724ZM858.882 170.93V206.93H866.382H873.882V194.43V181.93H883.246C901.664 181.93 909.137 178.79 914.202 168.924C916.629 164.197 916.974 162.506 916.677 156.811C916.204 147.759 912.445 141.612 905.002 137.724C899.657 134.932 899.642 134.93 879.268 134.93H858.882V170.93ZM925.882 170.93V206.93H951.928H977.973L977.678 200.18L977.382 193.43L959.632 193.157L941.882 192.884V184.907V176.93H959.428H976.973L976.678 170.18L976.382 163.43L959.132 163.156L941.882 162.883V155.929V148.976L959.632 148.703L977.382 148.43L977.678 141.68L977.973 134.93H951.928H925.882V170.93ZM989.882 170.93V206.93H997.882H1005.88V177.953V148.976L1023.63 148.703L1041.38 148.43L1041.68 141.68L1041.97 134.93H1015.93H989.882V170.93ZM1050.88 170.93V206.93H1058.81H1066.74L1083.56 183.218L1100.38 159.507L1100.65 183.218L1100.92 206.93H1108.9H1116.88V170.93V134.93H1108.43H1099.98L1083.68 157.68L1067.38 180.43L1067.11 157.68L1066.84 134.93H1058.86H1050.88V170.93ZM1212.88 170.93V206.93H1220.88H1228.88V191.93V176.93H1245.88H1262.88V191.93V206.93H1270.88H1278.88V170.93V134.93H1270.88H1262.88V148.93V162.93H1245.88H1228.88V148.93V134.93H1220.88H1212.88V170.93ZM1374.88 170.994V207.059L1399.13 206.744C1422.42 206.442 1423.53 206.339 1427.08 204.13C1432.2 200.948 1434.98 196.028 1435.55 189.155C1436.15 181.978 1433.2 175.605 1427.64 172.016L1423.89 169.602L1426.77 167.852C1435.69 162.427 1437.11 148.658 1429.56 140.899C1424.09 135.277 1422.22 134.93 1397.41 134.93H1374.88V170.994ZM108.882 136.385C108.882 136.635 105.945 147.724 102.356 161.026C98.767 174.328 95.986 185.367 96.176 185.557C97.26 186.641 175.309 206.883 175.868 206.225C177.355 204.476 189.146 157.801 188.288 157.06C187.381 156.277 111.939 135.93 109.941 135.93C109.359 135.93 108.882 136.135 108.882 136.385ZM504.972 150.791C507.449 153.852 507.408 158.404 504.882 160.93C503.114 162.698 501.549 162.93 491.382 162.93H479.882V155.344V147.758L491.472 148.094C502.243 148.406 503.198 148.597 504.972 150.791ZM1174.93 149.957C1189.9 157.592 1190.15 183.121 1175.34 191.709C1171.98 193.657 1170.22 193.96 1163.72 193.714C1156.88 193.454 1155.65 193.093 1152.22 190.337C1145.96 185.302 1143.44 179.755 1143.43 170.93C1143.41 160.475 1147.14 153.789 1155.38 149.503C1159.8 147.206 1170.01 147.443 1174.93 149.957ZM1336.67 149.833C1346.48 154.861 1350.9 166.478 1347.48 178.227C1344.46 188.639 1337.52 193.93 1326.88 193.93C1313.43 193.93 1305.48 185.378 1305.48 170.93C1305.49 160.415 1309.18 153.769 1317.38 149.503C1321.68 147.265 1332.01 147.442 1336.67 149.833ZM1415.25 150.003C1417.22 151.556 1417.88 152.977 1417.88 155.674C1417.88 162.121 1416.19 162.93 1402.73 162.93H1390.88V155.43V147.93H1401.75C1411.22 147.93 1412.95 148.195 1415.25 150.003ZM297.959 151.853C301.829 155.723 301.839 159.827 297.99 164.135C295.129 167.337 294.985 167.376 284.49 167.764L273.882 168.157V158.543V148.93H284.459C294.816 148.93 295.097 148.991 297.959 151.853ZM796.882 158.543V168.157L786.632 167.748C775.746 167.315 772.816 166.275 770.953 162.187C769.135 158.196 769.718 154.94 772.805 151.853C775.667 148.991 775.948 148.93 786.305 148.93H796.882V158.543ZM897.959 151.853C901.242 155.136 901.674 158.499 899.38 162.933C897.469 166.63 893.021 167.917 882.132 167.924L873.882 167.93V158.43V148.93H884.459C894.816 148.93 895.097 148.991 897.959 151.853ZM356.757 165.525C359.576 173.277 361.882 179.914 361.882 180.275C361.882 180.635 357.157 180.93 351.382 180.93C345.607 180.93 340.882 180.599 340.882 180.194C340.882 179.15 351.15 150.855 351.414 151.17C351.534 151.313 353.939 157.773 356.757 165.525ZM506.057 179.658C509.138 182.742 509.094 188.53 505.971 191.059C504.003 192.653 501.898 192.93 491.771 192.93H479.882V184.846V176.763L491.857 177.096C502.664 177.397 504.049 177.647 506.057 179.658ZM1415.22 178.04C1419.9 180.169 1421.14 186.062 1417.81 190.295C1415.77 192.889 1415.54 192.93 1403.31 192.93H1390.88V184.93V176.93H1401.83C1407.86 176.93 1413.88 177.43 1415.22 178.04Z" fill="black"/>
</svg>
