<svg width="824" height="208" viewBox="0 0 824 208" fill="none" xmlns="http://www.w3.org/2000/svg">
<path fill-rule="evenodd" clip-rule="evenodd" d="M88.939 15.518C78.248 24.164 69.128 31.58 68.673 31.996C67.982 32.63 117.43 94.912 119.774 96.361C120.779 96.981 160.208 65.1 159.806 63.993C159.638 63.53 148.475 49.543 135 32.911C121.525 16.279 110.023 2.024 109.439 1.233C108.576 0.0639983 104.754 2.727 88.939 15.518ZM38.5 63.968C18.7 71.595 1.86 78.237 1.078 78.727C-0.0879961 79.459 1.24401 83.763 8.44901 102.56C13.286 115.177 17.613 125.903 18.066 126.395C19.02 127.432 93.991 99.065 94.652 97.417C95.417 95.507 77.595 50.539 75.982 50.311C75.167 50.195 58.3 56.341 38.5 63.968ZM150.611 85.693C138.204 104.774 128.153 120.468 128.276 120.568C130.648 122.502 169.938 147.414 171 147.658C172.025 147.894 179.43 137.262 194.383 114.088C206.419 95.435 216.266 79.817 216.266 79.383C216.265 78.723 174.49 51 173.497 51C173.317 51 163.019 66.612 150.611 85.693ZM258 129.5V207L303.25 206.985C352.132 206.969 355.847 206.645 365.982 201.509C379.529 194.645 387 181.817 387 165.424C387 148.137 376.659 132.29 362.549 127.951C358.73 126.777 358.643 126.666 361.006 126.005C368.707 123.85 376.463 116.829 380.719 108.164C383.249 103.012 383.5 101.506 383.5 91.5C383.5 81.69 383.216 79.905 380.875 75C377.419 67.762 372.452 62.233 365.863 58.292C355.738 52.236 353.387 52 303.29 52H258V129.5ZM411.244 129.25L411.5 206.5L451 206.778C484.118 207.011 491.665 206.799 497.708 205.469C517.343 201.147 530.869 187.888 535.029 168.886C536.74 161.065 535.836 146.969 533.144 139.5C527.343 123.408 513.812 112.378 495.647 108.933C492.941 108.42 480.438 108 467.864 108H445V94.5V81H485H525V66.5V52H467.994H410.988L411.244 129.25ZM556.244 129.25L556.5 206.5L573.25 206.774L590 207.048V179.524V152L612.75 151.983C645.809 151.957 654.609 149.543 667.076 137.076C677.155 126.997 681.128 116.79 681.085 101.091C681.021 77.403 667.365 59.44 644.869 53.453C640.627 52.324 630.737 52.021 597.744 52.012L555.988 52L556.244 129.25ZM699 129.5V207H715.5H732V179.5V152L754.75 151.983C780.341 151.963 787.569 150.943 797.831 145.904C822.366 133.855 831.34 99.732 816.591 74.566C813.302 68.953 804.396 60.741 798.184 57.593C787.657 52.259 784.976 52 740.29 52H699V129.5ZM342.669 83.161C352.521 89.685 352.52 104.317 342.669 110.839L338.65 113.5L314.825 113.842L291 114.184V97.013V79.841L314.826 80.171L338.651 80.5L342.669 83.161ZM632.118 82.016C641.429 84.603 646.956 91.729 646.984 101.185C647.003 107.958 645.805 111.502 642.186 115.376C636.633 121.322 633.623 121.954 610.75 121.978L590 122V101.5V81L609.25 81.006C619.837 81.009 630.128 81.463 632.118 82.016ZM776.276 82.579C792.576 88.132 794.392 111.026 779.19 119.3C774.245 121.991 774.162 122 753.115 122H732V101.5V81H751.822C767.256 81 772.669 81.349 776.276 82.579ZM62.055 122.664C48.611 123.43 37.398 124.269 37.138 124.529C36.576 125.091 40.688 206.021 41.31 206.644C41.941 207.274 90.826 204.726 91.999 204.001C92.919 203.432 89.563 125.541 88.476 122.25C88.249 121.563 87.711 121.061 87.281 121.136C86.852 121.211 75.5 121.898 62.055 122.664ZM102.207 159.753C96.238 182.275 95.419 186 96.434 186C96.673 186 114.505 190.744 136.06 196.541C157.615 202.339 175.342 206.952 175.454 206.791C175.779 206.328 187.84 160.702 188.187 158.626C188.465 156.963 184.17 155.588 150 146.401C128.825 140.708 110.825 136.04 110 136.028C108.881 136.011 106.9 142.042 102.207 159.753ZM491.75 140.121C504.422 146.255 505.598 165.458 493.803 173.638L489.677 176.5L467.339 176.803L445 177.106V157.553V138H466.184C485.728 138 487.708 138.164 491.75 140.121ZM343.306 144.391C349.167 147.302 352.309 152.123 352.804 158.964C353.335 166.313 351.128 171.224 345.67 174.839L341.652 177.5L316.326 177.812L291 178.125V159.984V141.844L315.25 142.172C336.609 142.461 339.954 142.725 343.306 144.391Z" fill="black"/>
</svg>
